<?xml version="1.0" encoding="UTF-8" standalone="no"?>
<svg
   height="24"
   viewBox="0 -960 960 960"
   width="24"
   version="1.1"
   id="svg1"
   sodipodi:docname="casino.svg"
   inkscape:version="1.3 (0e150ed6c4, 2023-07-21)"
   xmlns:inkscape="http://www.inkscape.org/namespaces/inkscape"
   xmlns:sodipodi="http://sodipodi.sourceforge.net/DTD/sodipodi-0.dtd"
   xmlns="http://www.w3.org/2000/svg"
   xmlns:svg="http://www.w3.org/2000/svg">
  <defs
     id="defs1" />
  <sodipodi:namedview
     id="namedview1"
     pagecolor="#ffffff"
     bordercolor="#666666"
     borderopacity="1.0"
     inkscape:showpageshadow="2"
     inkscape:pageopacity="0.0"
     inkscape:pagecheckerboard="0"
     inkscape:deskcolor="#d1d1d1"
     inkscape:zoom="48.875"
     inkscape:cx="12"
     inkscape:cy="12"
     inkscape:window-width="2560"
     inkscape:window-height="1369"
     inkscape:window-x="-8"
     inkscape:window-y="-8"
     inkscape:window-maximized="1"
     inkscape:current-layer="svg1" />
  <path
     d="M300-240q25 0 42.5-17.5T360-300q0-25-17.5-42.5T300-360q-25 0-42.5 17.5T240-300q0 25 17.5 42.5T300-240Zm0-360q25 0 42.5-17.5T360-660q0-25-17.5-42.5T300-720q-25 0-42.5 17.5T240-660q0 25 17.5 42.5T300-600Zm180 180q25 0 42.5-17.5T540-480q0-25-17.5-42.5T480-540q-25 0-42.5 17.5T420-480q0 25 17.5 42.5T480-420Zm180 180q25 0 42.5-17.5T720-300q0-25-17.5-42.5T660-360q-25 0-42.5 17.5T600-300q0 25 17.5 42.5T660-240Zm0-360q25 0 42.5-17.5T720-660q0-25-17.5-42.5T660-720q-25 0-42.5 17.5T600-660q0 25 17.5 42.5T660-600ZM200-120q-33 0-56.5-23.5T120-200v-560q0-33 23.5-56.5T200-840h560q33 0 56.5 23.5T840-760v560q0 33-23.5 56.5T760-120H200Zm0-80h560v-560H200v560Zm0-560v560-560Z"
     id="path1"
     style="fill:#ffffff;fill-opacity:1" />
</svg>
